<svg width="206" height="114" viewBox="0 0 206 114" fill="none" xmlns="http://www.w3.org/2000/svg">
<path d="M15.9042 12.7813L0.814403 97.6551C0.427681 102.93 4.58154 107.425 9.84249 107.425H50.6334L15.9042 12.7813Z" fill="#EF8062"/>
<path d="M16.8414 21.1806L3.89753 97.6552C3.51081 102.93 7.66466 107.425 12.9256 107.425H53.7165L16.8414 21.1806Z" fill="#6DA49A"/>
<path d="M16.8414 21.1806L12.2204 101.45C11.8337 106.725 15.9875 111.22 21.2485 111.22H62.0393L16.8414 21.1806Z" fill="#92BCB5"/>
<path d="M197.068 113.147H44.1319C40.3617 113.147 37.0935 110.525 36.2564 106.83L18.3701 27.921L16.8414 21.1806L15.8283 16.7119C14.6772 11.6287 18.5187 6.78798 23.7053 6.78798H176.643C180.413 6.78798 183.681 9.40884 184.518 13.1046L186.349 21.1821L187.877 27.9226L204.945 103.223C206.096 108.305 202.253 113.147 197.068 113.147Z" fill="#E7F7F4"/>
<path d="M27.1539 67.4184C27.0584 67.4184 26.9734 67.3529 26.9522 67.2553L23.5354 52.1781C23.5096 52.0652 23.5794 51.9539 23.6916 51.928C23.8038 51.9021 23.9145 51.9722 23.9403 52.085L27.3571 67.1623C27.3829 67.2751 27.3131 67.3864 27.2009 67.4123C27.1842 67.4169 27.1691 67.4184 27.1539 67.4184Z" fill="#331832"/>
<path d="M65.9173 113.356H44.0106C40.1176 113.356 36.7963 110.691 35.9319 106.876L28.1216 72.4177C28.0958 72.3049 28.1656 72.1936 28.2778 72.1677C28.39 72.1418 28.5007 72.2119 28.5265 72.3247L36.3368 106.783C37.1572 110.407 40.3132 112.938 44.0106 112.938H65.9173C66.0326 112.938 66.1251 113.031 66.1251 113.147C66.1251 113.261 66.0326 113.356 65.9173 113.356Z" fill="#331832"/>
<path d="M186.349 21.1806H16.8414L15.8283 16.7119C14.6772 11.6287 18.5187 6.78798 23.7053 6.78798H176.643C180.413 6.78798 183.681 9.40884 184.518 13.1046L186.349 21.1806Z" fill="#EF8062"/>
<path d="M92.736 43.3322H82.3825C81.054 43.3322 79.68 42.2497 79.313 40.9141L76.4543 30.5053C76.0872 29.1697 76.8668 28.0872 78.1953 28.0872H88.5488C89.8773 28.0872 91.2513 29.1697 91.6183 30.5053L94.477 40.9141C94.844 42.2497 94.0645 43.3322 92.736 43.3322Z" fill="#B8D5DC"/>
<path d="M112.482 43.3322H102.128C100.8 43.3322 99.4256 42.2497 99.0586 40.9141L96.1999 30.5053C95.8329 29.1697 96.6124 28.0872 97.9409 28.0872H108.294C109.623 28.0872 110.997 29.1697 111.364 30.5053L114.223 40.9141C114.59 42.2497 113.81 43.3322 112.482 43.3322Z" fill="#B8D5DC"/>
<path d="M132.226 43.3322H121.872C120.544 43.3322 119.17 42.2497 118.803 40.9141L115.944 30.5053C115.577 29.1697 116.356 28.0872 117.685 28.0872H128.039C129.367 28.0872 130.741 29.1697 131.108 30.5053L133.967 40.9141C134.335 42.2497 133.556 43.3322 132.226 43.3322Z" fill="#B8D5DC"/>
<path d="M58.665 63.0686H48.3114C46.9829 63.0686 45.6089 61.9861 45.2419 60.6505L42.3832 50.2418C42.0162 48.9062 42.7957 47.8237 44.1242 47.8237H54.4778C55.8063 47.8237 57.1803 48.9062 57.5473 50.2418L60.406 60.6505C60.773 61.9861 59.9935 63.0686 58.665 63.0686Z" fill="#B8D5DC"/>
<path d="M78.4107 63.0686H68.0571C66.7286 63.0686 65.3546 61.9861 64.9875 60.6505L62.1288 50.2418C61.7618 48.9062 62.5413 47.8237 63.8698 47.8237H74.2234C75.5519 47.8237 76.9259 48.9062 77.293 50.2418L80.1517 60.6505C80.5187 61.9861 79.7392 63.0686 78.4107 63.0686Z" fill="#B8D5DC"/>
<path d="M98.1562 63.0686H87.8026C86.4741 63.0686 85.1001 61.9861 84.7331 60.6505L81.8744 50.2418C81.5074 48.9062 82.2869 47.8237 83.6154 47.8237H93.969C95.2975 47.8237 96.6715 48.9062 97.0385 50.2418L99.8972 60.6505C100.264 61.9861 99.4847 63.0686 98.1562 63.0686Z" fill="#B8D5DC"/>
<path d="M117.902 63.0686H107.548C106.22 63.0686 104.846 61.9861 104.479 60.6505L101.62 50.2418C101.253 48.9062 102.033 47.8237 103.361 47.8237H113.715C115.043 47.8237 116.417 48.9062 116.784 50.2418L119.643 60.6505C120.01 61.9861 119.23 63.0686 117.902 63.0686Z" fill="#B8D5DC"/>
<path d="M137.646 63.0686H127.292C125.964 63.0686 124.588 61.9861 124.223 60.6505L121.364 50.2418C120.997 48.9062 121.777 47.8237 123.105 47.8237H133.459C134.787 47.8237 136.161 48.9062 136.528 50.2418L139.387 60.6505C139.755 61.9861 138.976 63.0686 137.646 63.0686Z" fill="#B8D5DC"/>
<path d="M64.0852 82.8051H53.7316C52.4031 82.8051 51.0291 81.7226 50.6621 80.387L47.8034 69.9783C47.4364 68.6428 48.2159 67.5603 49.5444 67.5603H59.898C61.2265 67.5603 62.6005 68.6428 62.9675 69.9783L65.8262 80.387C66.1932 81.7226 65.4137 82.8051 64.0852 82.8051Z" fill="#B8D5DC"/>
<path d="M83.8308 82.8051H73.4772C72.1487 82.8051 70.7747 81.7226 70.4077 80.387L67.549 69.9783C67.182 68.6428 67.9615 67.5603 69.29 67.5603H79.6436C80.9721 67.5603 82.3461 68.6428 82.7131 69.9783L85.5718 80.387C85.9388 81.7226 85.1593 82.8051 83.8308 82.8051Z" fill="#B8D5DC"/>
<path d="M103.576 82.8051H93.2229C91.8944 82.8051 90.5204 81.7226 90.1534 80.387L87.2946 69.9783C86.9276 68.6428 87.7071 67.5603 89.0357 67.5603H99.3892C100.718 67.5603 102.092 68.6428 102.459 69.9783L105.317 80.387C105.684 81.7226 104.905 82.8051 103.576 82.8051Z" fill="#B8D5DC"/>
<path d="M123.322 82.8051H112.969C111.64 82.8051 110.266 81.7226 109.899 80.387L107.04 69.9783C106.673 68.6428 107.453 67.5603 108.781 67.5603H119.135C120.463 67.5603 121.837 68.6428 122.204 69.9783L125.063 80.387C125.43 81.7226 124.651 82.8051 123.322 82.8051Z" fill="#B8D5DC"/>
<path d="M143.066 82.8051H132.713C131.384 82.8051 130.01 81.7226 129.643 80.387L126.784 69.9783C126.417 68.6428 127.197 67.5603 128.525 67.5603H138.879C140.207 67.5603 141.581 68.6428 141.948 69.9783L144.807 80.387C145.176 81.7226 144.396 82.8051 143.066 82.8051Z" fill="#B8D5DC"/>
<path d="M151.971 43.3322H141.618C140.289 43.3322 138.915 42.2497 138.548 40.9141L135.69 30.5053C135.323 29.1697 136.102 28.0872 137.431 28.0872H147.784C149.113 28.0872 150.487 29.1697 150.854 30.5053L153.712 40.9141C154.081 42.2497 153.3 43.3322 151.971 43.3322Z" fill="#EF8062"/>
<path d="M171.717 43.3322H161.363C160.035 43.3322 158.661 42.2497 158.294 40.9141L155.435 30.5053C155.068 29.1697 155.848 28.0872 157.176 28.0872H167.53C168.858 28.0872 170.232 29.1697 170.599 30.5053L173.458 40.9141C173.826 42.2497 173.045 43.3322 171.717 43.3322Z" fill="#EF8062"/>
<path d="M157.392 63.0686H147.038C145.71 63.0686 144.336 61.9861 143.969 60.6505L141.11 50.2418C140.743 48.9062 141.522 47.8237 142.851 47.8237H153.204C154.533 47.8237 155.907 48.9062 156.274 50.2418L159.133 60.6505C159.501 61.9861 158.722 63.0686 157.392 63.0686Z" fill="#EF8062"/>
<path d="M177.137 63.0686H166.784C165.455 63.0686 164.081 61.9861 163.714 60.6505L160.855 50.2418C160.488 48.9062 161.268 47.8237 162.596 47.8237H172.95C174.278 47.8237 175.652 48.9062 176.019 50.2418L178.878 60.6505C179.247 61.9861 178.466 63.0686 177.137 63.0686Z" fill="#EF8062"/>
<path d="M162.812 82.8051H152.458C151.13 82.8051 149.756 81.7226 149.389 80.387L146.53 69.9783C146.163 68.6428 146.942 67.5603 148.271 67.5603H158.624C159.953 67.5603 161.327 68.6428 161.694 69.9783L164.553 80.387C164.921 81.7226 164.142 82.8051 162.812 82.8051Z" fill="#EF8062"/>
<path d="M182.557 82.8051H172.204C170.875 82.8051 169.501 81.7226 169.134 80.387L166.275 69.9783C165.908 68.6428 166.688 67.5603 168.016 67.5603H178.37C179.699 67.5603 181.073 68.6428 181.44 69.9783L184.298 80.387C184.667 81.7226 183.886 82.8051 182.557 82.8051Z" fill="#EF8062"/>
<path d="M69.7631 103.484H59.4096C58.0811 103.484 56.7071 102.401 56.3401 101.066L53.4814 90.657C53.1143 89.3214 53.8939 88.2389 55.2224 88.2389H65.5759C66.9044 88.2389 68.2784 89.3214 68.6454 90.657L71.5041 101.066C71.8727 102.4 71.0916 103.484 69.7631 103.484Z" fill="#B8D5DC"/>
<path d="M89.5087 103.484H79.1552C77.8267 103.484 76.4527 102.401 76.0857 101.066L73.227 90.657C72.86 89.3214 73.6395 88.2389 74.968 88.2389H85.3215C86.65 88.2389 88.024 89.3214 88.391 90.657L91.2497 101.066C91.6167 102.4 90.8372 103.484 89.5087 103.484Z" fill="#B8D5DC"/>
<path d="M109.254 103.484H98.9008C97.5723 103.484 96.1983 102.401 95.8313 101.066L92.9726 90.657C92.6056 89.3214 93.3851 88.2389 94.7136 88.2389H105.067C106.396 88.2389 107.77 89.3214 108.137 90.657L110.995 101.066C111.362 102.4 110.583 103.484 109.254 103.484Z" fill="#B8D5DC"/>
<path d="M39.8976 13.0924C39.0423 13.0924 38.3462 12.3926 38.3462 11.5327C38.3462 10.6728 39.0423 9.97295 39.8976 9.97295C40.7529 9.97295 41.449 10.6728 41.449 11.5327C41.449 12.3926 40.7529 13.0924 39.8976 13.0924ZM39.8976 10.5996C39.385 10.5996 38.968 11.0188 38.968 11.5342C38.968 12.0495 39.385 12.4688 39.8976 12.4688C40.4102 12.4688 40.8273 12.0495 40.8273 11.5342C40.8273 11.0188 40.4102 10.5996 39.8976 10.5996Z" fill="#DAEBE8"/>
<path d="M39.8566 11.9184C39.7186 11.9184 39.5867 11.8392 39.526 11.7035C39.4441 11.5205 39.5245 11.304 39.7065 11.2217C39.7429 11.2049 43.3553 9.53084 44.0074 6.74074C44.3259 5.37771 43.8831 3.94454 42.6941 2.47935C41.3868 0.867803 38.2915 0.190861 35.5724 1.90761C33.208 3.40024 32.5757 5.96621 33.8799 8.77461C33.9648 8.95757 33.8859 9.17408 33.7055 9.25946C33.525 9.34484 33.3081 9.26555 33.2232 9.08412C32.4422 7.40396 32.2754 5.82138 32.7258 4.38363C33.1186 3.13038 33.9694 2.06008 35.1872 1.29318C37.5651 -0.208592 41.3261 -0.356489 43.2567 2.02043C44.5973 3.67163 45.0872 5.31672 44.7126 6.9115C44.4063 8.22117 43.4903 9.49882 42.0662 10.6057C41.0062 11.429 40.0462 11.8681 40.0052 11.8864C39.9567 11.9078 39.9067 11.9184 39.8566 11.9184Z" fill="#331832"/>
<path d="M63.3542 13.0924C62.4988 13.0924 61.8027 12.3926 61.8027 11.5327C61.8027 10.6728 62.4988 9.97295 63.3542 9.97295C64.2095 9.97295 64.9056 10.6728 64.9056 11.5327C64.9056 12.3926 64.2095 13.0924 63.3542 13.0924ZM63.3542 10.5996C62.8416 10.5996 62.4245 11.0188 62.4245 11.5342C62.4245 12.0495 62.8416 12.4688 63.3542 12.4688C63.8668 12.4688 64.2838 12.0495 64.2838 11.5342C64.2838 11.0188 63.8668 10.5996 63.3542 10.5996Z" fill="#DAEBE8"/>
<path d="M63.3133 11.9184C63.1753 11.9184 63.0434 11.8392 62.9827 11.7035C62.9008 11.5205 62.9812 11.304 63.1632 11.2217C63.1996 11.2049 66.812 9.53084 67.4641 6.74074C67.7826 5.37771 67.3398 3.94454 66.1508 2.47935C64.8435 0.867803 61.7482 0.190861 59.029 1.90761C56.6647 3.40024 56.0323 5.96621 57.3366 8.77461C57.4215 8.95757 57.3426 9.17408 57.1621 9.25946C56.9817 9.34484 56.7648 9.26555 56.6799 9.08412C55.8989 7.40396 55.732 5.82138 56.1825 4.38363C56.5752 3.13038 57.426 2.06008 58.6438 1.29318C61.0218 -0.208592 64.7829 -0.356489 66.7134 2.02043C68.0541 3.67163 68.5439 5.31672 68.1693 6.9115C67.863 8.22117 66.947 9.49882 65.5229 10.6057C64.4629 11.429 63.5029 11.8681 63.4619 11.8864C63.4134 11.9078 63.3618 11.9184 63.3133 11.9184Z" fill="#331832"/>
<path d="M86.8094 13.0924C85.954 13.0924 85.2579 12.3926 85.2579 11.5327C85.2579 10.6728 85.954 9.97295 86.8094 9.97295C87.6647 9.97295 88.3608 10.6728 88.3608 11.5327C88.3608 12.3926 87.6647 13.0924 86.8094 13.0924ZM86.8094 10.5996C86.2968 10.5996 85.8797 11.0188 85.8797 11.5342C85.8797 12.0495 86.2968 12.4688 86.8094 12.4688C87.322 12.4688 87.739 12.0495 87.739 11.5342C87.739 11.0188 87.322 10.5996 86.8094 10.5996Z" fill="#DAEBE8"/>
<path d="M86.7684 11.9184C86.6304 11.9184 86.4985 11.8392 86.4378 11.7035C86.3559 11.5205 86.4363 11.304 86.6183 11.2217C86.6547 11.2049 90.2671 9.53084 90.9193 6.74074C91.2377 5.37771 90.7949 3.94454 89.6059 2.47935C88.2986 0.867803 85.2033 0.190861 82.4841 1.90761C80.1198 3.40024 79.4874 5.96621 80.7916 8.77461C80.8766 8.95757 80.7977 9.17408 80.6172 9.25946C80.4368 9.34484 80.2199 9.26555 80.135 9.08412C79.3539 7.40396 79.1871 5.82138 79.6375 4.38363C80.0303 3.13038 80.8811 2.06008 82.0989 1.29318C84.4769 -0.208592 88.238 -0.356489 90.1686 2.02043C91.5092 3.67163 91.9991 5.31672 91.6245 6.9115C91.3181 8.22117 90.4021 9.49882 88.9781 10.6057C87.918 11.429 86.958 11.8681 86.917 11.8864C86.8685 11.9078 86.8185 11.9184 86.7684 11.9184Z" fill="#331832"/>
<path d="M110.264 13.0924C109.409 13.0924 108.713 12.3926 108.713 11.5327C108.713 10.6728 109.409 9.97295 110.264 9.97295C111.12 9.97295 111.816 10.6728 111.816 11.5327C111.816 12.3926 111.12 13.0924 110.264 13.0924ZM110.264 10.5996C109.752 10.5996 109.335 11.0188 109.335 11.5342C109.335 12.0495 109.752 12.4688 110.264 12.4688C110.777 12.4688 111.194 12.0495 111.194 11.5342C111.194 11.0188 110.777 10.5996 110.264 10.5996Z" fill="#DAEBE8"/>
<path d="M110.223 11.9184C110.085 11.9184 109.954 11.8392 109.893 11.7035C109.811 11.5205 109.891 11.304 110.073 11.2217C110.11 11.2049 113.722 9.53084 114.374 6.74074C114.693 5.37771 114.25 3.94454 113.061 2.47935C111.754 0.867803 108.658 0.190861 105.939 1.90761C103.575 3.40024 102.943 5.96621 104.247 8.77461C104.332 8.95757 104.253 9.17408 104.072 9.25946C103.892 9.34484 103.675 9.26555 103.59 9.08412C102.809 7.40396 102.642 5.82138 103.093 4.38363C103.485 3.13038 104.336 2.06008 105.554 1.29318C107.932 -0.208592 111.693 -0.356489 113.624 2.02043C114.964 3.67163 115.454 5.31672 115.079 6.9115C114.773 8.22117 113.857 9.49882 112.433 10.6057C111.373 11.429 110.413 11.8681 110.372 11.8864C110.324 11.9078 110.274 11.9184 110.223 11.9184Z" fill="#331832"/>
<path d="M133.721 13.0924C132.866 13.0924 132.17 12.3926 132.17 11.5327C132.17 10.6728 132.866 9.97295 133.721 9.97295C134.576 9.97295 135.273 10.6728 135.273 11.5327C135.273 12.3926 134.576 13.0924 133.721 13.0924ZM133.721 10.5996C133.208 10.5996 132.791 11.0188 132.791 11.5342C132.791 12.0495 133.208 12.4688 133.721 12.4688C134.234 12.4688 134.651 12.0495 134.651 11.5342C134.651 11.0188 134.234 10.5996 133.721 10.5996Z" fill="#DAEBE8"/>
<path d="M133.68 11.9184C133.542 11.9184 133.41 11.8392 133.35 11.7035C133.268 11.5205 133.348 11.304 133.53 11.2217C133.566 11.2049 137.179 9.53084 137.831 6.74074C138.149 5.37771 137.707 3.94454 136.518 2.47935C135.21 0.867803 132.115 0.192385 129.396 1.90761C127.032 3.40024 126.399 5.96621 127.703 8.77461C127.788 8.95757 127.709 9.17408 127.529 9.25946C127.349 9.34484 127.132 9.26555 127.047 9.08412C126.266 7.40396 126.099 5.82138 126.549 4.38363C126.942 3.13038 127.793 2.06008 129.011 1.29318C131.389 -0.208592 135.15 -0.356489 137.08 2.02043C138.421 3.67163 138.911 5.31672 138.536 6.9115C138.23 8.22117 137.314 9.49882 135.89 10.6057C134.83 11.429 133.87 11.8681 133.829 11.8864C133.78 11.9078 133.729 11.9184 133.68 11.9184Z" fill="#331832"/>
<path d="M157.176 13.0924C156.321 13.0924 155.625 12.3926 155.625 11.5327C155.625 10.6728 156.321 9.97295 157.176 9.97295C158.032 9.97295 158.728 10.6728 158.728 11.5327C158.728 12.3926 158.032 13.0924 157.176 13.0924ZM157.176 10.5996C156.664 10.5996 156.246 11.0188 156.246 11.5342C156.246 12.0495 156.664 12.4688 157.176 12.4688C157.689 12.4688 158.106 12.0495 158.106 11.5342C158.106 11.0188 157.689 10.5996 157.176 10.5996Z" fill="#DAEBE8"/>
<path d="M157.135 11.9184C156.997 11.9184 156.865 11.8392 156.805 11.7035C156.723 11.5205 156.803 11.304 156.985 11.2217C157.022 11.2049 160.634 9.53084 161.286 6.74074C161.605 5.37771 161.162 3.94454 159.973 2.47935C158.666 0.867803 155.57 0.190861 152.851 1.90761C150.487 3.40024 149.854 5.96621 151.159 8.77461C151.243 8.95757 151.165 9.17408 150.984 9.25946C150.804 9.34484 150.587 9.26555 150.502 9.08412C149.721 7.40396 149.554 5.82138 150.004 4.38363C150.397 3.13038 151.248 2.06008 152.466 1.29318C154.844 -0.208592 158.605 -0.356489 160.535 2.02043C161.876 3.67163 162.366 5.31672 161.991 6.9115C161.685 8.22117 160.769 9.49882 159.345 10.6057C158.285 11.429 157.325 11.8681 157.284 11.8864C157.235 11.9078 157.185 11.9184 157.135 11.9184Z" fill="#331832"/>
<path d="M105.651 66.1545C105.201 66.1545 104.784 66.1011 104.409 65.9822C103.543 65.7108 102.949 65.1238 102.641 64.2396C102.016 62.4435 102.83 59.5467 104.876 56.2946C106.831 53.1859 109.496 50.4232 112.005 48.9032C114.823 47.1956 117.247 47.1986 118.828 48.9108C120.008 50.1885 120.478 51.5804 120.225 53.0472C119.926 54.7868 118.633 56.5813 116.384 58.3804C114.729 59.7037 113.184 60.5164 113.12 60.5514C112.976 60.6262 112.8 60.5697 112.726 60.4264C112.652 60.2831 112.708 60.1047 112.85 60.03C112.911 59.998 118.992 56.7749 119.65 52.9465C119.87 51.6704 119.449 50.4476 118.401 49.3118C116.642 47.406 114.116 48.3116 112.309 49.4078C107.045 52.5974 102.02 60.6688 103.196 64.0474C103.443 64.7564 103.898 65.2062 104.586 65.4227C108.74 66.7278 119.218 59.129 119.324 59.0527C119.455 58.9582 119.638 58.9872 119.732 59.1183C119.828 59.2494 119.797 59.4339 119.667 59.5284C119.262 59.8211 110.525 66.153 105.651 66.1545Z" fill="#EF8062"/>
</svg>
