<svg width="158" height="135" viewBox="0 0 158 135" fill="none" xmlns="http://www.w3.org/2000/svg">
<path d="M140.269 27.1112C137.873 28.5703 136.692 28.2379 136.114 27.2941C135.536 26.3504 135.78 25.1505 138.176 23.6914C142.541 21.034 145.697 21.4593 145.697 21.4593C145.697 21.4593 144.697 24.4156 140.269 27.1112Z" fill="#ACC9C5"/>
<path d="M140.407 92.8705L139.875 92.8309C139.881 92.7485 140.377 84.4957 137.356 72.4556C134.568 61.347 128.129 44.6506 113.287 28.1967L113.681 27.8415C128.605 44.3869 135.076 61.1793 137.878 72.3534C140.915 84.4682 140.413 92.7867 140.407 92.8705Z" fill="#ACC9C5"/>
<path d="M128.393 48.6712L127.938 48.3906C138.023 31.9489 131.323 12.2413 131.255 12.0447L131.757 11.8724C131.828 12.0706 138.611 32.0114 128.393 48.6712Z" fill="#ACC9C5"/>
<path d="M120.193 40.1316C114.785 40.2047 110.64 37.5504 110.593 37.5199L110.881 37.0747C110.934 37.1082 116.244 40.5036 122.616 39.3708L122.713 39.8952C121.852 40.0477 121.007 40.1209 120.193 40.1316Z" fill="#ACC9C5"/>
<path d="M112.869 25.2297C115.74 27.7347 116.009 29.1526 115.288 29.982C114.566 30.8114 113.129 30.7382 110.258 28.2332C105.029 23.6685 103.808 19.9606 103.808 19.9606C103.808 19.9606 107.563 20.5994 112.869 25.2297Z" fill="#ACC9C5"/>
<path d="M111.985 35.7772C115.47 37.3049 116.153 38.5795 115.718 39.5903C115.281 40.6012 113.892 40.9656 110.407 39.4379C104.058 36.6539 101.779 33.478 101.779 33.478C101.779 33.478 105.544 32.9536 111.985 35.7772Z" fill="#ACC9C5"/>
<path d="M125.46 31.5677C126.159 34.3014 125.501 35.3305 124.433 35.5958C123.366 35.8626 122.29 35.2649 121.591 32.5312C120.317 27.5518 121.637 24.6641 121.637 24.6641C121.637 24.6641 124.168 26.5165 125.46 31.5677Z" fill="#ACC9C5"/>
<path d="M132.835 9.69671C133.796 13.3772 133.217 14.693 132.151 14.9643C131.085 15.2357 129.934 14.3621 128.972 10.6801C127.221 3.97472 128.305 0.240871 128.305 0.240871C128.305 0.240871 131.058 2.89375 132.835 9.69671Z" fill="#ACC9C5"/>
<path d="M153.478 33.9004C153.278 31.8391 154.112 31.1393 155.215 31.031C156.317 30.9228 157.271 31.4472 157.471 33.5086C157.837 37.2622 156.017 39.2732 156.017 39.2732C156.017 39.2732 153.85 37.7105 153.478 33.9004Z" fill="#ACC9C5"/>
<path d="M127.316 91.4023C127.316 91.4023 87.3866 10.6374 65.806 22.2597C44.2254 33.8821 104.593 70.4704 115.469 94.3479L127.316 91.4023Z" fill="#ACC9C5"/>
<path d="M106.797 79.0709C106.797 79.0709 50.9028 8.51967 28.1195 25.2175C5.33624 41.9154 78.351 63.7498 93.829 84.831L106.797 79.0709Z" fill="#92BCB5"/>
<path d="M99.5722 82.3566C89.1489 67.6042 72.8232 55.2713 60.9622 47.5231C48.1032 39.1238 37.5844 34.1565 37.4797 34.1077L37.7876 33.4552C37.8922 33.504 48.4581 38.4926 61.358 46.9193C73.2705 54.7011 89.6737 67.0949 100.162 81.9404L99.5722 82.3566Z" fill="#68A1BF"/>
<path d="M105.115 125.071C96.0265 124.897 105.57 134.083 94.6965 134.379C81.1127 133.19 75.5408 126.87 73.6042 123.786C72.5987 122.183 71.4158 120.697 70.0433 119.398C65.8803 115.452 64.7278 116.551 51.7854 118.841C40.8055 120.779 39.518 111.14 34.8576 104.164C34.7742 104.035 34.6862 103.91 34.5998 103.784C32.8011 101.201 30.4929 99.03 26.9821 98.0253C23.2589 96.9626 19.4539 95.3343 16.122 93.3004C15.846 93.1327 15.5715 92.962 15.3016 92.7851C8.69694 88.5253 4.24584 82.663 6.64352 76.598C6.69964 76.4547 6.7603 76.3098 6.82399 76.168C7.27441 75.1648 7.9144 74.1555 8.76519 73.1492C17.6325 62.6658 26.6212 66.3951 36.9959 68.0097C42.7316 68.9016 50.9164 61.626 58.9557 58.1681C59.071 58.1178 59.1862 58.0705 59.3015 58.0217C65.6832 55.3643 71.9511 55.2225 76.8026 63.608C76.8026 63.6096 76.8041 63.6096 76.8041 63.6111C76.9027 63.7818 77.0013 63.9496 77.0983 64.1157C87.9387 82.5822 93.3043 75.9348 108.567 79.3545C111.406 79.9918 113.961 80.6977 115.649 82.2026C131.39 96.2278 120.825 115.632 105.115 125.071Z" fill="#CCD39C"/>
<path d="M106.432 107.044L106.978 106.341C106.667 106.101 75.1071 82.288 6.6845 76.1544L6.60413 77.0387C74.7689 83.151 106.122 106.806 106.432 107.044Z" fill="#C2C68E"/>
<path d="M63.3493 87.3041C66.1852 83.0107 66.3733 76.5675 63.8937 68.6683C62.0359 62.7527 59.3076 58.0294 59.2803 57.9836L58.5099 58.4288C58.616 58.6133 69.1274 76.9456 62.6046 86.8177L63.3493 87.3041Z" fill="#C2C68E"/>
<path d="M45.4175 84.5688C46.5534 83.7425 47.1736 83.1982 47.2009 83.1722L46.6065 82.5105C46.4775 82.6264 33.4002 94.0841 15.3441 92.343L15.2592 93.2273C29.8075 94.6299 41.1863 87.6455 45.4175 84.5688Z" fill="#C2C68E"/>
<path d="M35.164 104.475C39.5984 100.157 41.0831 95.6469 41.5456 92.6235C42.0506 89.3333 41.5032 87.0875 41.4804 86.993L40.616 87.208C40.6372 87.2949 42.6618 95.9335 34.5406 103.839L35.164 104.475Z" fill="#C2C68E"/>
<path d="M3.72781 49.737C0.734123 49.0616 0.0622839 47.912 0.330715 46.7411C0.599145 45.5701 1.70775 44.8216 4.70144 45.497C10.1535 46.7258 12.3024 49.4397 12.3024 49.4397C12.3024 49.4397 9.2587 50.9841 3.72781 49.737Z" fill="#ACC9C5"/>
</svg>