<svg width="140" height="139" viewBox="0 0 140 139" fill="none" xmlns="http://www.w3.org/2000/svg">
<path d="M39.4192 64.4599C39.4192 64.4599 35.8417 69.6482 31.2829 70.191C28.5804 70.5127 23.832 67.622 23.832 67.622L36.9503 58.4863L39.4192 64.4599Z" fill="#FFB27D"/>
<path d="M74.5351 131.825C74.5351 131.825 74.3986 134.453 72.6091 135.147C70.818 135.841 65.6708 136.371 67.5423 138.114C68.616 139.114 73.8163 138.628 75.2798 138.667C76.7432 138.707 78.1005 139.385 79.2137 138.429C80.4391 137.379 79.3881 131.954 79.3881 131.954C79.3881 131.954 78.1081 132.581 76.9722 132.521C75.3359 132.436 74.5351 131.825 74.5351 131.825Z" fill="#331832"/>
<path d="M63.4839 56.4097C63.8251 61.8679 61.0604 77.7273 61.5108 88.8602C62.4208 111.34 70.6876 133.22 75.9076 133.105L77.4196 133.207C80.4618 133.413 83.0051 130.85 82.8656 127.717C82.8656 127.717 80.2298 106.209 79.8082 99.7233C78.9574 86.6312 85.1616 63.013 85.1616 63.013C85.1616 63.013 62.9227 47.4555 63.4839 56.4097Z" fill="#FFDC84"/>
<path d="M89.7886 128.964C89.7886 128.964 89.6522 131.593 87.8626 132.287C86.0715 132.98 80.9243 133.511 82.7957 135.254C83.8695 136.254 89.0698 135.767 90.5333 135.807C91.9968 135.847 93.3541 136.525 94.4673 135.569C95.6927 134.519 94.6417 129.094 94.6417 129.094C94.6417 129.094 93.3617 129.721 92.2258 129.661C90.5894 129.576 89.7886 128.964 89.7886 128.964Z" fill="#331832"/>
<path d="M78.736 53.5495C79.0772 59.0077 76.3125 74.867 76.763 86C77.6729 108.479 85.9396 130.359 91.1596 130.245L92.6716 130.347C95.7139 130.553 98.2571 127.99 98.1176 124.857C98.1176 124.857 95.4818 103.349 95.0602 96.8631C94.6037 89.8345 96.1794 79.7718 97.7385 71.9596C99.2884 64.1869 96.6086 52.56 89.4823 49.1677C84.3973 46.7481 78.4752 49.375 78.736 53.5495Z" fill="#FFDC84"/>
<path d="M101.917 33.3937C94.8965 19.2023 75.213 16.551 75.213 16.551C75.213 16.551 87.8278 49.2073 90.3832 47.2435C94.7478 43.8878 101.477 41.5582 101.917 33.3937Z" fill="#6DA49A"/>
<path d="M129.647 16.3375L137.199 13.6953C137.827 13.4758 138.633 13.9972 139.041 14.8876L139.382 15.6347C139.808 16.5678 139.641 17.5618 139.009 17.853L131.85 21.1585L129.647 16.3375Z" fill="#331832"/>
<path d="M2.5456 70.8861C2.5456 70.8861 0.530073 72.2508 0.819738 72.6762C1.28684 73.3638 3.29477 72.5267 3.29477 72.5267L2.5456 70.8861Z" fill="#331832"/>
<path d="M83.868 30.3505C83.4525 30.3505 83.0521 30.1218 82.8504 29.7239C82.5653 29.1598 82.7898 28.4706 83.3509 28.184L119.137 9.92031C120.443 9.25405 122.043 9.54983 123.025 10.6399C123.047 10.6628 123.066 10.6872 123.086 10.7116L125.99 14.5156C126.374 15.0172 126.28 15.7368 125.78 16.121C125.281 16.5068 124.565 16.4107 124.183 15.9091L121.312 12.1493C121.015 11.8444 120.55 11.7651 120.168 11.9603L84.3821 30.224C84.2184 30.3109 84.0424 30.3505 83.868 30.3505Z" fill="#331832"/>
<path d="M18.1116 72.5435L133.164 24.6529C134.263 24.1315 134.811 19.9525 132.577 16.179L131.327 13.4438C130.824 12.3415 129.535 11.846 128.428 12.3308L13.8106 60.8464L18.1116 72.5435Z" fill="#366F90"/>
<path d="M111.909 19.3213C111.909 19.3213 116.882 24.7261 116.148 31.7349L107.766 35.2233C107.766 35.2233 108.056 28.0087 103.225 22.9972L111.909 19.3213Z" fill="#331832"/>
<path d="M2.5501 70.8953L3.23559 72.3956C3.42667 72.8133 3.85131 73.0771 4.31993 73.0694L16.4039 72.8621C18.1722 72.8316 19.7418 71.621 20.1498 69.915C20.447 68.6678 20.3894 67.0685 19.3536 65.2084C18.0296 62.8284 16.7587 61.6621 15.7078 61.1208C14.5931 60.5461 13.2145 60.7504 12.2606 61.5981L2.73361 70.0583C2.494 70.2717 2.41967 70.6102 2.5501 70.8953Z" fill="#92A5E6"/>
<path d="M118.367 27.44C118.297 27.44 118.232 27.3988 118.204 27.3287C118.168 27.2387 118.212 27.135 118.301 27.1L131.288 21.8506C131.377 21.814 131.479 21.8583 131.515 21.9482C131.552 22.0382 131.508 22.1418 131.418 22.1769L118.432 27.4262C118.411 27.4369 118.389 27.44 118.367 27.44Z" fill="#331832"/>
<path d="M66.7567 16.3147L64.5061 13.334L63.851 12.4665L60.0004 7.36502L61.6808 13.1739L62.6908 16.6608L63.0108 17.7646C63.2277 18.5132 62.7985 18.8334 62.4284 19.675C62.2783 20.0165 61.2895 22.1099 63.2565 22.2333C65.7057 22.3873 69.2712 19.6735 70.2054 17.3926C70.1917 17.3926 67.4846 17.2783 66.7567 16.3147Z" fill="#FFB27D"/>
<path d="M61.7513 15.8879C64.9183 15.5235 67.1554 12.3263 66.7479 8.74661C66.3404 5.16695 63.4427 2.56046 60.2756 2.92485C57.1085 3.28923 54.8714 6.48651 55.2789 10.0662C55.6864 13.6458 58.5842 16.2523 61.7513 15.8879Z" fill="#FFB27D"/>
<path d="M57.2084 8.31792C54.1146 9.49647 52.0263 8.32706 51.4622 6.77803C50.7403 4.79142 51.4925 2.5563 53.3154 2.76365C55.1398 2.971 53.8477 1.37623 55.2945 0.667268C57.9985 -0.659171 59.1617 1.03623 61.5063 0.337944C64.5986 -0.582939 69.6791 2.9771 68.2914 7.31318C68.2914 7.31318 59.6516 7.38789 57.2084 8.31792Z" fill="#331832"/>
<path d="M53.7385 7.24911C53.7385 7.24911 58.0986 9.11528 58.229 10.957C58.3594 12.8003 58.6946 13.4239 60.9528 13.6602C63.2109 13.8966 61.981 15.9502 64.6198 15.1681C67.2601 14.386 69.4804 10.4234 67.885 5.7016C66.9963 3.06855 64.7942 1.89915 64.7942 1.89915L53.7385 7.24911Z" fill="#331832"/>
<path d="M51.397 2.65537C51.3712 2.65537 51.3454 2.64317 51.3302 2.6203C51.3045 2.58371 51.312 2.53187 51.35 2.50595C52.0006 2.04094 52.4404 2.15071 52.8665 2.25896C53.0834 2.31385 53.3063 2.36874 53.5656 2.35501C53.7067 2.34739 53.8113 2.2925 53.8887 2.19035C54.151 1.83816 53.9797 1.06516 53.9782 1.05754C53.9675 1.01333 53.9963 0.969113 54.0403 0.95844C54.0843 0.949292 54.1283 0.976736 54.1389 1.02095C54.1465 1.05602 54.3285 1.8778 54.0206 2.28945C53.9144 2.43124 53.7658 2.509 53.5763 2.51967C53.2927 2.53644 53.0561 2.47698 52.8271 2.41905C52.4024 2.31232 52.0339 2.22084 51.4455 2.64164C51.4303 2.65079 51.4137 2.65537 51.397 2.65537Z" fill="#331832"/>
<path d="M57.7014 12.9223C57.6801 12.9223 57.6619 12.9056 57.6619 12.8827C57.6619 12.8614 57.6786 12.8431 57.7014 12.8415C57.7332 12.8415 58.4809 12.811 58.6599 11.753C58.6629 11.7316 58.6826 11.7164 58.7054 11.721C58.7266 11.724 58.7418 11.7453 58.7372 11.7667C58.5476 12.8934 57.7105 12.9223 57.7014 12.9223Z" fill="#331832"/>
<path d="M62.5437 69.6162C67.612 67.9269 85.6257 61.4655 97.2865 60.3997C97.2865 60.3997 98.1631 59.3965 97.4397 58.1432C95.2846 54.4155 80.3208 57.0668 80.3208 57.0668L68.2202 61.531L64.7427 63.6137L61.6307 68.6237C61.6292 68.6237 61.8143 69.8586 62.5437 69.6162Z" fill="#331832"/>
<path d="M82.6563 21.2499C82.6563 21.2499 77.7412 13.1754 65.5116 17.3484C44.201 24.6209 54.2239 40.1692 61.6293 68.6237C61.6293 68.6237 76.211 60.9425 97.4382 58.1433C97.4382 58.1433 94.2944 42.4364 87.5002 30.5716C85.7076 27.4385 84.6248 23.8342 82.6563 21.2499Z" fill="#6DA49A"/>
<path d="M63.0579 18.2982C63.0579 18.2982 56.2546 20.7316 52.7999 27.2891C49.3451 33.8465 50.4992 39.1706 46.7958 45.3088C44.066 49.8339 49.565 55.9615 53.5976 54.6975C57.6301 53.4336 60.231 49.2972 60.231 49.2972L63.0579 18.2982Z" fill="#6DA49A"/>
<path d="M95.6305 51.1924C92.3274 39.0242 84.9828 25.5205 84.9084 25.3848L85.0465 25.3085C85.1208 25.4442 92.4745 38.9648 95.7822 51.1512L95.6305 51.1924Z" fill="#331832"/>
<path d="M38.9598 63.5694C38.9598 63.5694 36.0116 61.6011 33.0953 63.76C32.0503 64.5345 29.1917 63.4795 29.6375 64.562C30.0834 65.6445 33.4153 67.038 33.1408 68.0382C32.8678 69.0383 38.9598 63.5694 38.9598 63.5694Z" fill="#FFB27D"/>
<path d="M80.9593 112.664C78.7406 102.934 80.433 92.7831 82.2438 85.9817C84.2047 78.6146 86.7237 73.4781 86.7495 73.4263L86.9982 73.5497C86.9724 73.6001 84.464 78.7168 82.5107 86.0594C80.709 92.8289 79.0242 102.93 81.2307 112.602L80.9593 112.664Z" fill="#331832"/>
<path d="M37.6144 67.128C40.552 68.4925 59.8579 59.8478 62.0023 50.0657C64.2817 39.6646 46.7942 45.3103 46.7942 45.3103L34.8148 62.6836C34.8133 62.6821 34.6374 65.7451 37.6144 67.128Z" fill="#6DA49A"/>
</svg>
