<svg width="91" height="149" viewBox="0 0 91 149" fill="none" xmlns="http://www.w3.org/2000/svg">
<path opacity="0.6" d="M3.93137 70.8604C14.1712 43.7416 30.3756 9.90063 46.0416 15.0112C64.9197 21.1708 38.4922 50.9379 20.43 77.4743C13.9498 86.9927 -2.59438 88.1422 3.93137 70.8604Z" fill="#ACC9C5"/>
<path opacity="0.6" d="M19.3486 100.191C35.6653 83.7131 58.532 64.2755 68.3336 73.1672C80.1445 83.8824 51.1206 96.976 29.27 110.457C21.4324 115.292 8.94954 110.693 19.3486 100.191Z" fill="#ACC9C5"/>
<path d="M72.4647 126.568C62.595 128.832 64.4057 143.869 53.0997 141.203C43.5378 138.942 42.7249 138.067 39.4552 140.864C38.3345 141.823 37.3715 142.953 36.5616 144.19C35.591 145.67 33.709 147.858 30.8184 148.401C13.1595 151.72 -11.3224 125.687 6.97498 110.983C8.29591 109.922 10.2326 109.496 12.377 109.133C24.009 107.176 27.6988 112.512 36.7254 98.6043C45.755 84.6935 58.432 104.351 66.2393 103.567C74.045 102.783 80.9059 100.35 87.0874 108.606C93.2659 116.871 82.3361 124.311 72.4647 126.568Z" fill="#CCD39C"/>
<path d="M12.8228 130.059L12.4452 129.509C12.6863 129.341 37.2167 112.733 88.5144 110.957L88.5372 111.626C37.4321 113.393 13.0624 129.891 12.8228 130.059Z" fill="#C2C68E"/>
<path d="M44.5281 109.785C37.693 103.736 36.4479 98.8879 36.3994 98.6852L37.0454 98.5251C37.0575 98.5723 38.3072 103.389 44.9679 109.281L44.5281 109.785Z" fill="#C2C68E"/>
<path d="M45.7794 116.993C43.8412 113.645 43.9686 108.789 46.1449 102.948C47.7751 98.5738 50.0059 95.1327 50.0287 95.0991L50.5852 95.4666C50.4973 95.6007 41.8986 108.96 46.3541 116.658L45.7794 116.993Z" fill="#C2C68E"/>
<path d="M59.2706 115.679C58.4578 115.01 58.0179 114.575 57.9982 114.555L58.4684 114.083C58.5609 114.176 67.8407 123.339 81.3821 122.777L81.4094 123.445C70.4977 123.898 62.2992 118.17 59.2706 115.679Z" fill="#C2C68E"/>
<path d="M66.0936 131.084C62.965 127.65 62.0444 124.195 61.823 121.902C61.5834 119.405 62.0838 117.739 62.1051 117.668L62.742 117.867C62.7223 117.931 60.8554 124.348 66.585 130.634L66.0936 131.084Z" fill="#C2C68E"/>
<path d="M87.0581 83.5898C88.9978 82.893 89.8774 83.5364 90.2489 84.5854C90.622 85.6343 90.346 86.6909 88.4063 87.3876C84.8728 88.6561 82.4902 87.3709 82.4902 87.3709C82.4902 87.3709 83.4729 84.8781 87.0581 83.5898Z" fill="#ACC9C5"/>
<path d="M81.7381 1.86449C83.1682 0.373391 84.2389 0.557872 85.0366 1.33086C85.8343 2.10385 86.0557 3.17415 84.6256 4.66372C82.0216 7.37909 79.3191 7.29219 79.3191 7.29219C79.3191 7.29219 79.0962 4.6195 81.7381 1.86449Z" fill="#ACC9C5"/>
</svg>