<svg width="330" height="77" viewBox="0 0 330 77" fill="none" xmlns="http://www.w3.org/2000/svg">
<path d="M165 77C256.074 77 329.903 59.861 329.903 38.7189C329.903 17.5768 256.074 0.437805 165 0.437805C73.9265 0.437805 0.0968018 17.5768 0.0968018 38.7189C0.0968018 59.861 73.9265 77 165 77Z" fill="#B8D5DC"/>
<path d="M79.9431 29.9206C79.9431 29.9206 74.9218 24.8145 76.6507 21.9055C78.378 18.9965 81.2929 28.1535 81.2929 28.1535C81.2929 28.1535 79.7809 17.327 82.9125 17.1379C86.0442 16.9504 82.9125 28.1535 82.9125 28.1535C82.9125 28.1535 84.0727 25.5418 85.2071 25.3802C86.3415 25.2185 86.0169 27.5955 83.9923 29.9221H79.9431V29.9206Z" fill="#B8D5DC"/>
<path d="M80.3028 30.05C80.2892 30.0348 78.8515 28.5666 77.6761 26.7111C76.0716 24.1787 75.6894 22.1677 76.5402 20.7345C76.8587 20.1994 77.2394 19.9539 77.6731 20.0042C78.5391 20.1033 79.5551 21.4694 80.6956 24.0598C81.0429 24.851 81.3523 25.6423 81.5934 26.2964C81.3174 23.4667 80.9959 17.827 82.5534 15.9136C82.8946 15.4943 83.3101 15.2687 83.7894 15.2397C84.2565 15.2123 84.6401 15.38 84.9283 15.7398C86.3266 17.4855 85.0572 23.613 84.3596 26.4794C84.8798 25.6362 85.6198 24.6955 86.3766 24.5873C86.736 24.5354 87.0196 24.6711 87.1789 24.9669C87.6293 25.8039 86.9984 27.9308 85.1618 30.0424L84.8858 29.8C86.692 27.725 87.191 25.7628 86.8558 25.1422C86.7694 24.9837 86.6329 24.9227 86.4266 24.9517C85.4545 25.0904 84.3202 27.1929 83.9653 27.9903L83.6225 27.8652C83.6301 27.8409 84.3141 25.377 84.7751 22.6784C85.3772 19.1489 85.3317 16.8284 84.6417 15.97C84.4293 15.7047 84.1579 15.5843 83.8091 15.6056C83.4299 15.6285 83.1115 15.8054 82.8339 16.1454C80.867 18.5619 82.1302 27.7966 82.1424 27.8896L81.7875 27.972C81.1324 25.9152 79.1093 20.5409 77.6306 20.3701C77.347 20.3381 77.0938 20.518 76.8526 20.9236C74.9888 24.0628 80.5045 29.7345 80.5606 29.7909L80.3028 30.05Z" fill="#444092"/>
<path d="M39.4331 22.2165C39.4331 22.2165 32.9847 15.6575 35.2034 11.9206C37.4221 8.18523 41.1665 19.9463 41.1665 19.9463C41.1665 19.9463 39.2253 6.04006 43.2472 5.79765C47.2691 5.55675 43.2472 19.9463 43.2472 19.9463C43.2472 19.9463 44.738 16.5905 46.1939 16.3832C47.6498 16.1758 47.2343 19.2282 44.6334 22.2165H39.4331V22.2165Z" fill="#B8D5DC"/>
<path d="M39.8956 22.3828C39.8774 22.3645 38.0317 20.477 36.5212 18.0939C34.4602 14.8403 33.9688 12.2591 35.0623 10.4188C35.4702 9.73123 35.9601 9.41564 36.5182 9.47968C38.4109 9.6977 40.4855 14.6254 41.5547 17.5451C41.4425 16.3772 41.3242 14.8403 41.2802 13.2227C41.1558 8.63349 41.6624 5.60554 42.7861 4.22573C43.2244 3.68753 43.7582 3.39634 44.374 3.35974C44.976 3.32315 45.4674 3.53965 45.8374 4.00161C47.6346 6.24285 46.0028 14.1146 45.1065 17.7966C45.7753 16.7141 46.7262 15.5051 47.6968 15.3679C48.1563 15.3023 48.5233 15.4746 48.728 15.8542C49.3073 16.9291 48.4975 19.6613 46.1377 22.3736L45.7844 22.0626C48.1032 19.3975 48.7447 16.8757 48.3155 16.0799C48.2048 15.8756 48.0304 15.7978 47.7635 15.8359C46.5154 16.0143 45.0579 18.7145 44.603 19.739L44.1617 19.5789C44.1708 19.5469 45.0504 16.3833 45.6418 12.9162C46.4153 8.38344 46.3561 5.40278 45.472 4.29893C45.199 3.95741 44.8471 3.80494 44.4028 3.83238C43.916 3.86135 43.5065 4.08853 43.1501 4.5261C40.6235 7.63028 42.2447 19.492 42.2614 19.6109L41.8049 19.7162C40.9632 17.0739 38.3654 10.1703 36.4651 9.95079C36.1027 9.9081 35.7751 10.1414 35.4657 10.6613C33.071 14.6924 40.1564 21.9787 40.2292 22.0519L39.8956 22.3828Z" fill="#444092"/>
<path d="M186.786 29.6171C186.786 29.6171 181.976 24.7245 183.632 21.939C185.286 19.152 188.08 27.9248 188.08 27.9248C188.08 27.9248 186.632 17.5526 189.631 17.3727C192.631 17.1928 189.631 27.9248 189.631 27.9248C189.631 27.9248 190.743 25.4228 191.829 25.2673C192.915 25.1118 192.605 27.3896 190.666 29.6171H186.786Z" fill="#B8D5DC"/>
<path d="M187.129 29.7406C187.116 29.7268 185.739 28.3196 184.613 26.5419C183.075 24.1162 182.71 22.189 183.526 20.8168C183.831 20.3046 184.195 20.0683 184.612 20.117C186.024 20.2802 187.571 23.9546 188.368 26.1317C188.285 25.2612 188.195 24.1146 188.164 22.9071C188.071 19.4843 188.449 17.2263 189.286 16.1957C189.612 15.7947 190.011 15.5782 190.47 15.5492C190.919 15.5233 191.286 15.6834 191.562 16.028C192.903 17.7005 191.685 23.5703 191.018 26.3177C191.517 25.5097 192.226 24.6086 192.95 24.5049C193.294 24.4561 193.565 24.5842 193.719 24.8678C194.151 25.6698 193.546 27.7082 191.787 29.7299L191.523 29.4981C193.252 27.5115 193.731 25.6301 193.411 25.0355C193.329 24.883 193.197 24.8251 193 24.8541C192.069 24.9867 190.983 27.0008 190.642 27.7661L190.312 27.6472C190.319 27.6243 190.975 25.2627 191.417 22.6769C191.993 19.2953 191.949 17.0739 191.289 16.2505C191.084 15.9959 190.825 15.8831 190.491 15.9014C190.129 15.9228 189.823 16.092 189.557 16.4183C187.672 18.7327 188.882 27.5801 188.895 27.6701L188.553 27.7478C187.925 25.778 185.987 20.6278 184.571 20.4646C184.299 20.4326 184.057 20.6064 183.826 20.9952C182.04 24.0033 187.325 29.4356 187.378 29.4905L187.129 29.7406Z" fill="#444092"/>
<path d="M211.616 43.2215C211.616 43.2215 206.62 38.1414 208.34 35.2476C210.058 32.3538 212.959 41.4635 212.959 41.4635C212.959 41.4635 211.455 30.692 214.57 30.5045C217.685 30.3169 214.57 41.4635 214.57 41.4635C214.57 41.4635 215.724 38.864 216.852 38.704C217.981 38.5439 217.658 40.9071 215.644 43.2215H211.616V43.2215Z" fill="#B8D5DC"/>
<path d="M211.974 43.3495C211.96 43.3343 210.53 41.8737 209.361 40.0274C207.764 37.5071 207.384 35.5083 208.231 34.0828C208.546 33.5507 208.925 33.3052 209.359 33.3555C210.22 33.4546 211.232 34.8131 212.365 37.3912C212.711 38.178 213.017 38.9647 213.258 39.6157C212.984 36.8012 212.664 31.1905 214.214 29.2863C214.553 28.87 214.966 28.6444 215.443 28.6154C215.909 28.588 216.29 28.7557 216.576 29.1125C217.969 30.849 216.705 36.9445 216.011 39.7971C216.529 38.9586 217.265 38.0225 218.017 37.9157C218.373 37.8654 218.657 37.9981 218.816 38.2923C219.265 39.1248 218.637 41.241 216.81 43.3419L216.535 43.101C218.331 41.0367 218.828 39.0836 218.496 38.4677C218.411 38.3091 218.275 38.2496 218.069 38.2786C217.101 38.4158 215.973 40.5076 215.621 41.3019L215.28 41.1784C215.286 41.154 215.968 38.7024 216.426 36.0175C217.025 32.5063 216.98 30.198 216.294 29.3427C216.082 29.0789 215.81 28.96 215.466 28.9813C215.089 29.0042 214.772 29.1795 214.496 29.518C212.538 31.9224 213.795 41.1098 213.807 41.2028L213.454 41.2837C212.802 39.2376 210.789 33.8907 209.318 33.7199C209.036 33.6879 208.784 33.8678 208.545 34.2703C206.69 37.3928 212.178 43.0355 212.234 43.0919L211.974 43.3495Z" fill="#444092"/>
<path d="M135.985 44.2659C135.985 44.2659 130.628 38.8168 132.471 35.7142C134.314 32.6115 137.424 42.3799 137.424 42.3799C137.424 42.3799 135.812 30.8292 139.151 30.628C142.492 30.4267 139.151 42.3799 139.151 42.3799C139.151 42.3799 140.39 39.5929 141.599 39.4206C142.809 39.2483 142.464 41.7838 140.303 44.2659H135.985Z" fill="#B8D5DC"/>
<path d="M136.37 44.4031C136.355 44.3879 134.822 42.8205 133.567 40.84C131.855 38.1384 131.447 35.9932 132.356 34.464C132.695 33.8938 133.102 33.6315 133.564 33.6849C134.488 33.7916 135.572 35.2476 136.789 38.0118C137.16 38.8565 137.489 39.6996 137.746 40.3979C137.451 37.3791 137.107 31.3613 138.769 29.3198C139.133 28.8731 139.576 28.6307 140.089 28.6002C140.588 28.5697 140.997 28.7496 141.305 29.1338C142.797 30.9954 141.443 37.5331 140.698 40.593C141.253 39.6935 142.044 38.6903 142.85 38.5744C143.232 38.5195 143.537 38.6628 143.707 38.9784C144.188 39.8719 143.515 42.1406 141.555 44.394L141.261 44.1348C143.187 41.921 143.719 39.8261 143.363 39.166C143.272 38.9967 143.126 38.9312 142.905 38.9632C141.868 39.1111 140.657 41.3539 140.28 42.2061L139.914 42.0735C139.922 42.0475 140.653 39.4191 141.144 36.539C141.787 32.7731 141.737 30.2986 141.003 29.3808C140.776 29.0972 140.486 28.9707 140.114 28.992C139.71 29.0164 139.37 29.2055 139.074 29.5683C136.975 32.1465 138.322 42.0003 138.337 42.0994L137.958 42.1863C137.259 39.9923 135.101 34.2581 133.522 34.0752C133.222 34.0401 132.949 34.2337 132.692 34.6667C130.703 38.0164 136.588 44.0662 136.649 44.1272L136.37 44.4031Z" fill="#444092"/>
</svg>
