<svg width="283" height="12" viewBox="0 0 283 12" fill="none" xmlns="http://www.w3.org/2000/svg">
<circle cx="2" cy="10" r="2" fill="#FF522C"/>
<path d="M240.648 4.92969C240.891 4.92969 241.139 5.0612 241.395 5.32422C241.652 5.58464 241.865 5.71484 242.031 5.71484C242.318 5.71484 242.522 5.61849 242.645 5.42578C242.77 5.23047 242.832 5.00911 242.832 4.76172C242.832 4.30599 242.641 3.93359 242.258 3.64453C242.039 3.48307 241.693 3.31771 241.219 3.14844V3.01953C241.542 2.90755 241.772 2.79948 241.91 2.69531C242.147 2.51562 242.266 2.27214 242.266 1.96484C242.266 1.69922 242.185 1.4974 242.023 1.35938C241.865 1.21875 241.661 1.14844 241.414 1.14844C241.185 1.14844 240.978 1.23177 240.793 1.39844C240.689 1.49219 240.578 1.63151 240.461 1.81641L240.293 1.72266C240.418 1.45703 240.596 1.22005 240.828 1.01172C241.198 0.678385 241.63 0.511719 242.125 0.511719C242.466 0.511719 242.763 0.608073 243.016 0.800781C243.268 0.99349 243.408 1.24479 243.434 1.55469C243.434 1.77604 243.384 1.97396 243.285 2.14844C243.189 2.32031 243.031 2.46224 242.812 2.57422V2.63281C243.133 2.76042 243.367 2.95312 243.516 3.21094C243.664 3.46615 243.738 3.73568 243.738 4.01953C243.738 4.59245 243.517 5.08073 243.074 5.48438C242.613 5.90885 242.03 6.12109 241.324 6.12109C240.98 6.12109 240.694 6.05599 240.465 5.92578C240.236 5.79557 240.121 5.6237 240.121 5.41016C240.121 5.29557 240.161 5.1875 240.242 5.08594C240.326 4.98177 240.461 4.92969 240.648 4.92969ZM244.137 5.81641C244.988 4.89453 245.543 4.2526 245.801 3.89062C246.197 3.34375 246.395 2.85938 246.395 2.4375C246.395 2.1875 246.318 1.95443 246.164 1.73828C246.013 1.51953 245.777 1.41016 245.457 1.41016C245.176 1.41016 244.939 1.50781 244.746 1.70312C244.642 1.8099 244.549 1.95312 244.469 2.13281H244.25C244.427 1.57812 244.672 1.16797 244.984 0.902344C245.297 0.634115 245.648 0.5 246.039 0.5C246.409 0.5 246.745 0.628906 247.047 0.886719C247.349 1.14193 247.5 1.51823 247.5 2.01562C247.5 2.27604 247.428 2.54297 247.285 2.81641C247.145 3.08984 246.906 3.38672 246.57 3.70703L245.352 4.87109V4.9375H246.488C246.884 4.9375 247.142 4.90495 247.262 4.83984C247.384 4.77474 247.507 4.60026 247.629 4.31641H247.82L247.461 6H244.137V5.81641ZM250.109 5.79688C250.414 5.79427 250.612 5.74089 250.703 5.63672C250.794 5.52995 250.84 5.37109 250.84 5.16016V1.36328C250.84 1.14453 250.788 1.0013 250.684 0.933594C250.579 0.863281 250.395 0.817708 250.129 0.796875V0.59375H252.145L253.719 4.29688H253.785L255.352 0.59375H257.367V0.796875C257.096 0.817708 256.911 0.86849 256.812 0.949219C256.714 1.02734 256.664 1.22135 256.664 1.53125V5.06641C256.664 5.36068 256.714 5.55339 256.812 5.64453C256.911 5.73568 257.096 5.78646 257.367 5.79688V6H254.711V5.79688C254.948 5.78906 255.126 5.75 255.246 5.67969C255.366 5.60677 255.426 5.44922 255.426 5.20703V1.29688H255.367L253.406 6H253.191L251.211 1.39062H251.176V5.01172C251.176 5.27734 251.225 5.47135 251.324 5.59375C251.423 5.71615 251.642 5.78385 251.98 5.79688V6H250.109V5.79688ZM258.035 1.09375C258.035 0.921875 258.095 0.776042 258.215 0.65625C258.337 0.533854 258.484 0.472656 258.656 0.472656C258.826 0.472656 258.97 0.533854 259.09 0.65625C259.212 0.776042 259.273 0.921875 259.273 1.09375C259.273 1.26562 259.212 1.41276 259.09 1.53516C258.97 1.65495 258.826 1.71484 258.656 1.71484C258.484 1.71484 258.337 1.65495 258.215 1.53516C258.095 1.41276 258.035 1.26562 258.035 1.09375ZM257.684 5.80859C257.824 5.78516 257.921 5.75 257.973 5.70312C258.051 5.63281 258.09 5.50651 258.09 5.32422V2.97266C258.09 2.8112 258.062 2.70182 258.008 2.64453C257.953 2.58464 257.845 2.54036 257.684 2.51172V2.31641H259.219V5.35547C259.219 5.52995 259.245 5.64193 259.297 5.69141C259.349 5.74089 259.447 5.77995 259.59 5.80859V6H257.684V5.80859ZM259.91 5.80859C260.056 5.79036 260.163 5.7513 260.23 5.69141C260.301 5.62891 260.336 5.50651 260.336 5.32422V2.97266C260.336 2.8112 260.307 2.69922 260.25 2.63672C260.195 2.57422 260.082 2.53255 259.91 2.51172V2.31641H261.426V2.89062C261.553 2.69792 261.715 2.53906 261.91 2.41406C262.108 2.28646 262.327 2.22266 262.566 2.22266C262.91 2.22266 263.176 2.3112 263.363 2.48828C263.553 2.66536 263.648 2.97656 263.648 3.42188V5.35547C263.648 5.53516 263.678 5.65104 263.738 5.70312C263.801 5.75521 263.904 5.79036 264.047 5.80859V6H262.168V5.80859C262.311 5.77995 262.409 5.74089 262.461 5.69141C262.513 5.64193 262.539 5.52995 262.539 5.35547V3.41797C262.539 3.23568 262.521 3.09896 262.484 3.00781C262.422 2.84375 262.298 2.76172 262.113 2.76172C261.975 2.76172 261.848 2.8125 261.73 2.91406C261.616 3.01302 261.527 3.11328 261.465 3.21484V5.35547C261.465 5.52995 261.491 5.64193 261.543 5.69141C261.595 5.74089 261.693 5.77995 261.836 5.80859V6H259.91V5.80859ZM264.438 4.78906H264.66C264.738 5.17188 264.884 5.44271 265.098 5.60156C265.311 5.75781 265.53 5.83594 265.754 5.83594C265.96 5.83594 266.111 5.79036 266.207 5.69922C266.303 5.60547 266.352 5.48307 266.352 5.33203C266.352 5.1888 266.299 5.06641 266.195 4.96484C266.138 4.91016 266.046 4.85156 265.918 4.78906L265.324 4.5C265.012 4.34635 264.788 4.17969 264.652 4C264.514 3.82031 264.445 3.60807 264.445 3.36328C264.445 3.05339 264.553 2.78646 264.77 2.5625C264.986 2.33594 265.288 2.22266 265.676 2.22266C265.845 2.22266 266.025 2.2513 266.215 2.30859C266.405 2.36328 266.523 2.39062 266.57 2.39062C266.635 2.39062 266.681 2.3776 266.707 2.35156C266.736 2.32292 266.759 2.28385 266.777 2.23438H266.953V3.39062H266.75C266.674 3.11979 266.551 2.90234 266.379 2.73828C266.207 2.57422 266.007 2.49219 265.777 2.49219C265.6 2.49219 265.467 2.54167 265.379 2.64062C265.293 2.73958 265.25 2.84635 265.25 2.96094C265.25 3.05469 265.289 3.14844 265.367 3.24219C265.443 3.33854 265.586 3.4375 265.797 3.53906L266.234 3.75C266.505 3.88021 266.703 4.00651 266.828 4.12891C267.036 4.33724 267.141 4.59375 267.141 4.89844C267.141 5.19531 267.033 5.47266 266.816 5.73047C266.603 5.98568 266.281 6.11328 265.852 6.11328C265.745 6.11328 265.637 6.10156 265.527 6.07812C265.421 6.05729 265.288 6.01953 265.129 5.96484L264.992 5.91797C264.943 5.89974 264.911 5.88932 264.898 5.88672C264.888 5.88411 264.874 5.88281 264.855 5.88281C264.811 5.88281 264.772 5.90104 264.738 5.9375C264.707 5.97135 264.671 6.02995 264.629 6.11328H264.438V4.78906ZM269.48 5.80859C269.621 5.77474 269.72 5.73047 269.777 5.67578C269.837 5.61849 269.867 5.5013 269.867 5.32422V1.25C269.867 1.08073 269.84 0.970052 269.785 0.917969C269.73 0.865885 269.629 0.822917 269.48 0.789062V0.59375H270.996V5.32422C270.996 5.5013 271.025 5.61719 271.082 5.67188C271.139 5.72656 271.241 5.77214 271.387 5.80859V6H269.48V5.80859ZM271.758 4.16406C271.758 3.54948 271.921 3.07292 272.246 2.73438C272.574 2.39323 272.969 2.22266 273.43 2.22266C273.693 2.22266 273.94 2.29167 274.172 2.42969C274.404 2.56771 274.582 2.75911 274.707 3.00391C274.801 3.1888 274.866 3.42839 274.902 3.72266C274.921 3.86068 274.93 3.96615 274.93 4.03906H272.891C272.909 4.35938 272.961 4.63672 273.047 4.87109C273.203 5.3112 273.478 5.53125 273.871 5.53125C274.059 5.53125 274.236 5.47266 274.402 5.35547C274.504 5.28516 274.63 5.16667 274.781 5L274.965 5.11328C274.717 5.51953 274.431 5.80208 274.105 5.96094C273.895 6.0625 273.652 6.11328 273.379 6.11328C272.986 6.11328 272.617 5.95833 272.273 5.64844C271.93 5.33854 271.758 4.84375 271.758 4.16406ZM273.945 3.74219C273.94 3.27083 273.904 2.94141 273.836 2.75391C273.768 2.56641 273.633 2.47266 273.43 2.47266C273.221 2.47266 273.078 2.58073 273 2.79688C272.924 3.01302 272.882 3.32812 272.871 3.74219H273.945ZM275.242 5.80859C275.406 5.79557 275.523 5.75911 275.594 5.69922C275.667 5.63932 275.703 5.51432 275.703 5.32422V2.72266H275.242V2.37109H275.703V2.07422C275.703 1.70182 275.762 1.39583 275.879 1.15625C276.1 0.708333 276.509 0.484375 277.105 0.484375C277.423 0.484375 277.691 0.557292 277.91 0.703125C278.132 0.846354 278.242 1.03646 278.242 1.27344C278.242 1.42188 278.195 1.54167 278.102 1.63281C278.01 1.72396 277.888 1.76953 277.734 1.76953C277.607 1.76953 277.497 1.72786 277.406 1.64453C277.315 1.5612 277.27 1.46094 277.27 1.34375C277.27 1.25521 277.298 1.16276 277.355 1.06641C277.415 0.967448 277.445 0.907552 277.445 0.886719C277.445 0.821615 277.422 0.779948 277.375 0.761719C277.328 0.74349 277.277 0.734375 277.223 0.734375C277.092 0.734375 276.992 0.772135 276.922 0.847656C276.852 0.923177 276.816 1.08594 276.816 1.33594V2.37109H277.512V2.72266H276.816V5.17969C276.816 5.45573 276.855 5.625 276.934 5.6875C277.014 5.75 277.191 5.79036 277.465 5.80859V6H275.242V5.80859ZM277.926 2.66797V2.44531C277.996 2.38021 278.083 2.30339 278.188 2.21484C278.326 2.08724 278.456 1.95573 278.578 1.82031C278.82 1.55469 279.04 1.26953 279.238 0.964844H279.441V2.31641H280.203V2.66797H279.441V5.07422C279.441 5.1862 279.458 5.27995 279.492 5.35547C279.544 5.47266 279.63 5.53125 279.75 5.53125C279.854 5.53125 279.941 5.49479 280.012 5.42188C280.082 5.34635 280.152 5.24349 280.223 5.11328L280.414 5.20703C280.32 5.42578 280.208 5.60417 280.078 5.74219C279.849 5.98438 279.569 6.10547 279.238 6.10547C279.051 6.10547 278.887 6.07031 278.746 6C278.475 5.86458 278.34 5.61849 278.34 5.26172V2.66797H277.926Z" fill="#FF522C"/>
<line x1="3" y1="9.75" x2="283" y2="9.75" stroke="#FF522C" stroke-width="0.5" stroke-dasharray="2 2"/>
</svg>