<svg width="132" height="13" viewBox="0 0 132 13" fill="none" xmlns="http://www.w3.org/2000/svg">
<path d="M4.95605 0.539062V0.894531C4.41374 0.91276 4.05143 0.99707 3.86914 1.14746C3.68685 1.29785 3.5957 1.64193 3.5957 2.17969V6.8623C3.5957 7.57324 3.68001 8.1224 3.84863 8.50977C4.15397 9.22982 4.73958 9.58984 5.60547 9.58984C6.68099 9.58984 7.40788 9.19108 7.78613 8.39355C7.99577 7.95605 8.10059 7.3431 8.10059 6.55469V2.27539C8.10059 1.77409 8.00716 1.43001 7.82031 1.24316C7.63802 1.05176 7.27799 0.935547 6.74023 0.894531V0.539062H9.81641V0.894531C9.36979 0.98112 9.07357 1.08822 8.92773 1.21582C8.78646 1.33887 8.71582 1.62598 8.71582 2.07715V6.55469C8.71582 7.74414 8.42871 8.66243 7.85449 9.30957C7.28027 9.95671 6.37793 10.2803 5.14746 10.2803C3.53874 10.2803 2.43815 9.79948 1.8457 8.83789C1.53125 8.32747 1.37402 7.66895 1.37402 6.8623V2.17969C1.37402 1.65104 1.30339 1.31836 1.16211 1.18164C1.02539 1.04492 0.713216 0.949219 0.225586 0.894531V0.539062H4.95605ZM14.2119 9.41895C14.7178 9.41895 15.0596 9.08398 15.2373 8.41406C15.333 8.04492 15.3809 7.514 15.3809 6.82129C15.3809 6.01921 15.3079 5.38118 15.1621 4.90723C15.0163 4.42871 14.7201 4.18945 14.2734 4.18945C13.9727 4.18945 13.7038 4.32161 13.4668 4.58594C13.2298 4.85026 13.1113 5.04167 13.1113 5.16016V8.56445C13.1113 8.70117 13.223 8.87891 13.4463 9.09766C13.6742 9.31185 13.9294 9.41895 14.2119 9.41895ZM10.3701 12.5498C10.6709 12.5179 10.876 12.4473 10.9854 12.3379C11.0947 12.2331 11.1494 12.0326 11.1494 11.7363V4.70215C11.1494 4.41048 11.097 4.21452 10.9922 4.11426C10.8919 4.00944 10.696 3.93652 10.4043 3.89551V3.55371H13.0771V4.47656C13.2686 4.15755 13.4554 3.92285 13.6377 3.77246C13.9658 3.50814 14.3851 3.37598 14.8955 3.37598C15.6292 3.37598 16.2376 3.65169 16.7207 4.20312C17.2083 4.75456 17.4521 5.57715 17.4521 6.6709C17.4521 7.68717 17.1901 8.53027 16.666 9.2002C16.1465 9.86556 15.513 10.1982 14.7656 10.1982C14.3828 10.1982 14.0205 10.0866 13.6787 9.86328C13.4964 9.74479 13.3073 9.57617 13.1113 9.35742V10.54C13.1159 11.1689 13.1204 11.5221 13.125 11.5996C13.1569 11.9688 13.2503 12.2217 13.4053 12.3584C13.5648 12.4951 13.8291 12.5749 14.1982 12.5977V12.8848H10.3701V12.5498ZM21.5195 3.37598C22.1074 3.37598 22.6156 3.51953 23.0439 3.80664C23.4769 4.09375 23.6934 4.46289 23.6934 4.91406C23.6934 5.1556 23.6068 5.36523 23.4336 5.54297C23.265 5.7207 23.0485 5.80957 22.7842 5.80957C22.6064 5.80957 22.4515 5.76855 22.3193 5.68652C22.0687 5.54069 21.9434 5.27637 21.9434 4.89355C21.9434 4.85254 21.9456 4.79329 21.9502 4.71582C21.9548 4.63379 21.957 4.5472 21.957 4.45605C21.957 4.20996 21.9001 4.04134 21.7861 3.9502C21.6676 3.85905 21.5332 3.81348 21.3828 3.81348C20.9499 3.81348 20.6423 4.05273 20.46 4.53125C20.2777 5.00521 20.1865 5.5498 20.1865 6.16504C20.1865 7.04004 20.3597 7.77376 20.7061 8.36621C21.0524 8.95866 21.5195 9.25488 22.1074 9.25488C22.4766 9.25488 22.791 9.17285 23.0508 9.00879C23.2057 8.91309 23.3971 8.73763 23.625 8.48242L23.8848 8.72168C23.429 9.35514 22.8958 9.79036 22.2852 10.0273C21.9616 10.1504 21.6175 10.2119 21.2529 10.2119C20.3551 10.2119 19.6214 9.89062 19.0518 9.24805C18.4821 8.60547 18.1973 7.82161 18.1973 6.89648C18.1973 5.92122 18.498 5.0918 19.0996 4.4082C19.7057 3.72005 20.5124 3.37598 21.5195 3.37598ZM24.4385 6.79395C24.4385 5.81868 24.737 5.00521 25.334 4.35352C25.9355 3.70182 26.6898 3.37598 27.5967 3.37598C28.5218 3.37598 29.2783 3.70866 29.8662 4.37402C30.4587 5.03939 30.7549 5.84603 30.7549 6.79395C30.7549 7.72819 30.4632 8.53255 29.8799 9.20703C29.2965 9.87695 28.5355 10.2119 27.5967 10.2119C26.6852 10.2119 25.931 9.88607 25.334 9.23438C24.737 8.57812 24.4385 7.76465 24.4385 6.79395ZM26.4961 6.79395C26.4961 7.77376 26.5462 8.45964 26.6465 8.85156C26.806 9.45768 27.1227 9.76074 27.5967 9.76074C28.0479 9.76074 28.3441 9.52832 28.4854 9.06348C28.6266 8.59863 28.6973 7.84212 28.6973 6.79395C28.6973 5.75033 28.6221 4.99609 28.4717 4.53125C28.3258 4.06185 28.0365 3.82715 27.6035 3.82715C27.1296 3.82715 26.8128 4.13021 26.6533 4.73633C26.5485 5.14193 26.4961 5.8278 26.4961 6.79395ZM31.3564 9.66504C31.6117 9.63314 31.7871 9.57845 31.8828 9.50098C32.0378 9.37793 32.1152 9.15007 32.1152 8.81738V4.70215C32.1152 4.41048 32.0628 4.21224 31.958 4.10742C31.8532 4.0026 31.6527 3.93197 31.3564 3.89551V3.55371H34.0088V4.55859C34.2412 4.25326 34.4668 4.01628 34.6855 3.84766C35.0911 3.54232 35.5423 3.38965 36.0391 3.38965C36.5996 3.38965 37.0348 3.52181 37.3447 3.78613C37.5179 3.93652 37.682 4.18262 37.8369 4.52441H37.9326C38.1969 4.20085 38.4499 3.95703 38.6914 3.79297C39.0742 3.52409 39.4912 3.38965 39.9424 3.38965C40.4346 3.38965 40.8675 3.54688 41.2412 3.86133C41.6195 4.17578 41.8086 4.67253 41.8086 5.35156V8.87207C41.8086 9.19564 41.861 9.40299 41.9658 9.49414C42.0706 9.58073 42.2552 9.6377 42.5195 9.66504V10H39.1973V9.66504C39.4525 9.62858 39.6302 9.56706 39.7305 9.48047C39.8307 9.38932 39.8809 9.18652 39.8809 8.87207V5.48145C39.8809 5.11686 39.8262 4.83431 39.7168 4.63379C39.612 4.43327 39.4092 4.33301 39.1084 4.33301C38.8669 4.33301 38.6117 4.44466 38.3428 4.66797C38.0785 4.88672 37.9463 5.03939 37.9463 5.12598V8.87207C37.9463 9.17741 37.9919 9.37337 38.083 9.45996C38.1742 9.54655 38.3451 9.61491 38.5957 9.66504V10H35.3213V9.66504C35.5674 9.63314 35.7428 9.57389 35.8477 9.4873C35.9525 9.39616 36.0049 9.19108 36.0049 8.87207V5.48145C36.0049 5.12598 35.9548 4.8457 35.8545 4.64062C35.7542 4.43555 35.5469 4.33301 35.2324 4.33301C34.9453 4.33301 34.6787 4.4515 34.4326 4.68848C34.1865 4.9209 34.0635 5.06673 34.0635 5.12598V8.87207C34.0635 9.17741 34.1068 9.37337 34.1934 9.45996C34.2799 9.54655 34.4508 9.61491 34.7061 9.66504V10H31.3564V9.66504ZM43.6338 1.41406C43.6338 1.11328 43.7386 0.858073 43.9482 0.648438C44.1624 0.434245 44.4199 0.327148 44.7207 0.327148C45.0169 0.327148 45.2699 0.434245 45.4795 0.648438C45.6937 0.858073 45.8008 1.11328 45.8008 1.41406C45.8008 1.71484 45.6937 1.97233 45.4795 2.18652C45.2699 2.39616 45.0169 2.50098 44.7207 2.50098C44.4199 2.50098 44.1624 2.39616 43.9482 2.18652C43.7386 1.97233 43.6338 1.71484 43.6338 1.41406ZM43.0186 9.66504C43.2646 9.62402 43.4333 9.5625 43.5244 9.48047C43.6611 9.35742 43.7295 9.13639 43.7295 8.81738V4.70215C43.7295 4.4196 43.6816 4.22819 43.5859 4.12793C43.4902 4.02311 43.3011 3.94564 43.0186 3.89551V3.55371H45.7051V8.87207C45.7051 9.17741 45.7507 9.37337 45.8418 9.45996C45.9329 9.54655 46.1038 9.61491 46.3545 9.66504V10H43.0186V9.66504ZM46.915 9.66504C47.1702 9.63314 47.3571 9.56478 47.4756 9.45996C47.5986 9.35059 47.6602 9.13639 47.6602 8.81738V4.70215C47.6602 4.4196 47.61 4.22363 47.5098 4.11426C47.4141 4.00488 47.2158 3.93197 46.915 3.89551V3.55371H49.5674V4.55859C49.7907 4.22135 50.0732 3.94336 50.415 3.72461C50.7614 3.5013 51.1442 3.38965 51.5635 3.38965C52.165 3.38965 52.6299 3.5446 52.958 3.85449C53.2907 4.16439 53.457 4.70898 53.457 5.48828V8.87207C53.457 9.18652 53.5094 9.38932 53.6143 9.48047C53.7236 9.57161 53.9036 9.63314 54.1543 9.66504V10H50.8662V9.66504C51.1169 9.61491 51.2878 9.54655 51.3789 9.45996C51.4701 9.37337 51.5156 9.17741 51.5156 8.87207V5.48145C51.5156 5.16243 51.4837 4.92318 51.4199 4.76367C51.3105 4.47656 51.0941 4.33301 50.7705 4.33301C50.529 4.33301 50.3057 4.42188 50.1006 4.59961C49.9001 4.77279 49.7451 4.94824 49.6357 5.12598V8.87207C49.6357 9.17741 49.6813 9.37337 49.7725 9.45996C49.8636 9.54655 50.0345 9.61491 50.2852 9.66504V10H46.915V9.66504ZM56.8477 5.64551C56.8477 6.18327 56.8932 6.58203 56.9844 6.8418C57.1211 7.25195 57.3831 7.45703 57.7705 7.45703C58.1214 7.45703 58.363 7.30436 58.4951 6.99902C58.6273 6.68913 58.6934 6.23796 58.6934 5.64551C58.6934 5.0166 58.6227 4.55859 58.4814 4.27148C58.3447 3.98438 58.1077 3.84082 57.7705 3.84082C57.4014 3.84082 57.1553 3.99577 57.0322 4.30566C56.9092 4.611 56.8477 5.05762 56.8477 5.64551ZM56.0342 11.5244C56.0342 11.8115 56.1868 12.0371 56.4922 12.2012C56.8021 12.3652 57.2487 12.4473 57.832 12.4473C58.3516 12.4473 58.7799 12.4062 59.1172 12.3242C59.7507 12.1693 60.0674 11.8844 60.0674 11.4697C60.0674 11.2282 59.9762 11.0459 59.7939 10.9229C59.6162 10.8044 59.2904 10.7451 58.8164 10.7451H56.5195C56.3737 10.8636 56.2689 10.9639 56.2051 11.0459C56.0911 11.1963 56.0342 11.3558 56.0342 11.5244ZM54.8037 11.6201C54.8037 11.4196 54.8857 11.2122 55.0498 10.998C55.2184 10.7884 55.5078 10.6517 55.918 10.5879V10.4922C55.6445 10.3874 55.4463 10.2803 55.3232 10.1709C55.1045 9.97493 54.9951 9.71289 54.9951 9.38477C54.9951 8.99284 55.166 8.65788 55.5078 8.37988C55.8542 8.10189 56.1914 7.9082 56.5195 7.79883V7.70312C56.0456 7.51172 55.6628 7.23828 55.3711 6.88281C55.0794 6.52734 54.9336 6.09668 54.9336 5.59082C54.9336 4.9528 55.1888 4.42643 55.6992 4.01172C56.2096 3.59701 56.9001 3.38965 57.7705 3.38965C58.0986 3.38965 58.3994 3.42155 58.6729 3.48535C58.9463 3.54915 59.1582 3.61523 59.3086 3.68359H61.1543V4.42871H60.0195C60.2018 4.60645 60.3408 4.8138 60.4365 5.05078C60.5368 5.28776 60.5869 5.54525 60.5869 5.82324C60.5869 6.69824 60.1699 7.29753 59.3359 7.62109C58.8984 7.79427 58.3538 7.88086 57.7021 7.88086C57.5609 7.88086 57.4674 7.87858 57.4219 7.87402C57.3809 7.86947 57.3171 7.86719 57.2305 7.86719C57.0938 7.88997 56.9502 7.96289 56.7998 8.08594C56.6449 8.21354 56.5674 8.36621 56.5674 8.54395C56.5674 8.68522 56.6061 8.7946 56.6836 8.87207C56.7611 8.94954 56.8682 8.9974 57.0049 9.01562C57.0732 9.02474 57.2191 9.03385 57.4424 9.04297C57.6657 9.04753 57.8389 9.0498 57.9619 9.0498L58.8711 9.06348C59.3861 9.07259 59.819 9.14779 60.1699 9.28906C60.8398 9.5625 61.1748 10.0524 61.1748 10.7588C61.1748 11.6702 60.6735 12.2969 59.6709 12.6387C59.1423 12.8164 58.4769 12.9053 57.6748 12.9053C57.0186 12.9053 56.4535 12.8415 55.9795 12.7139C55.1956 12.4997 54.8037 12.1351 54.8037 11.6201ZM65.208 10V9.64453C65.609 9.63086 65.8939 9.57617 66.0625 9.48047C66.3223 9.33464 66.4521 9.0612 66.4521 8.66016V1.88574C66.4521 1.47559 66.3177 1.19987 66.0488 1.05859C65.8939 0.972005 65.6136 0.917318 65.208 0.894531V0.539062H73.2744V3.3623H72.9326C72.7549 2.45996 72.4518 1.84245 72.0234 1.50977C71.5996 1.17708 70.8249 1.01074 69.6992 1.01074C69.2708 1.01074 68.9974 1.05632 68.8789 1.14746C68.765 1.23405 68.708 1.40951 68.708 1.67383V4.91406C69.5055 4.92318 70.0456 4.77962 70.3281 4.4834C70.6107 4.18262 70.8271 3.63574 70.9775 2.84277H71.333V7.57324H70.9775C70.8773 6.77572 70.6722 6.21517 70.3623 5.8916C70.057 5.56348 69.5055 5.39941 68.708 5.39941V8.79004C68.708 9.08626 68.7832 9.28906 68.9336 9.39844C69.0885 9.50326 69.403 9.55566 69.877 9.55566C70.7702 9.55566 71.4993 9.38249 72.0645 9.03613C72.6296 8.68978 73.1309 8.04036 73.5684 7.08789H73.958L73.3906 10H65.208ZM78.0459 3.55371V3.89551C77.7998 3.90462 77.613 3.93197 77.4854 3.97754C77.3623 4.02311 77.3008 4.12109 77.3008 4.27148C77.3008 4.30794 77.3167 4.3763 77.3486 4.47656C77.3851 4.57227 77.4124 4.6429 77.4307 4.68848L78.4834 7.375H78.5928L79.5361 4.98242C79.5817 4.86849 79.6182 4.75228 79.6455 4.63379C79.6774 4.5153 79.6934 4.42188 79.6934 4.35352C79.6934 4.15755 79.6273 4.03451 79.4951 3.98438C79.363 3.92969 79.1715 3.90007 78.9209 3.89551V3.55371H81.04V3.89551C80.8532 3.90918 80.7005 3.9707 80.582 4.08008C80.4635 4.1849 80.3473 4.3763 80.2334 4.6543L77.9775 10.1982H77.6221L75.9404 6.04883C75.8219 5.75716 75.7057 5.48372 75.5918 5.22852C75.4824 4.97331 75.3662 4.72493 75.2432 4.4834C75.1156 4.2373 75.0153 4.08236 74.9424 4.01855C74.8695 3.95475 74.7373 3.91374 74.5459 3.89551V3.55371H78.0459ZM81.6348 6.78711C81.6348 5.71159 81.9196 4.8776 82.4893 4.28516C83.0635 3.68815 83.7539 3.38965 84.5605 3.38965C85.0208 3.38965 85.4538 3.51042 85.8594 3.75195C86.265 3.99349 86.5771 4.32845 86.7959 4.75684C86.96 5.0804 87.0739 5.49967 87.1377 6.01465C87.1696 6.25618 87.1855 6.44076 87.1855 6.56836H83.6172C83.6491 7.12891 83.7402 7.61426 83.8906 8.02441C84.1641 8.7946 84.6449 9.17969 85.333 9.17969C85.6611 9.17969 85.971 9.07715 86.2627 8.87207C86.4404 8.74902 86.6615 8.54167 86.9258 8.25L87.2471 8.44824C86.8141 9.15918 86.3128 9.65365 85.7432 9.93164C85.374 10.1094 84.9502 10.1982 84.4717 10.1982C83.7835 10.1982 83.1387 9.92708 82.5371 9.38477C81.9355 8.84245 81.6348 7.97656 81.6348 6.78711ZM85.4629 6.04883C85.4538 5.22396 85.39 4.64746 85.2715 4.31934C85.153 3.99121 84.916 3.82715 84.5605 3.82715C84.196 3.82715 83.9453 4.01628 83.8086 4.39453C83.6764 4.77279 83.6012 5.32422 83.583 6.04883H85.4629ZM87.7666 9.66504C88.0218 9.63314 88.2087 9.56478 88.3271 9.45996C88.4502 9.35059 88.5117 9.13639 88.5117 8.81738V4.70215C88.5117 4.4196 88.4616 4.22363 88.3613 4.11426C88.2656 4.00488 88.0674 3.93197 87.7666 3.89551V3.55371H90.4189V4.55859C90.6423 4.22135 90.9248 3.94336 91.2666 3.72461C91.613 3.5013 91.9958 3.38965 92.415 3.38965C93.0166 3.38965 93.4814 3.5446 93.8096 3.85449C94.1423 4.16439 94.3086 4.70898 94.3086 5.48828V8.87207C94.3086 9.18652 94.361 9.38932 94.4658 9.48047C94.5752 9.57161 94.7552 9.63314 95.0059 9.66504V10H91.7178V9.66504C91.9684 9.61491 92.1393 9.54655 92.2305 9.45996C92.3216 9.37337 92.3672 9.17741 92.3672 8.87207V5.48145C92.3672 5.16243 92.3353 4.92318 92.2715 4.76367C92.1621 4.47656 91.9456 4.33301 91.6221 4.33301C91.3805 4.33301 91.1572 4.42188 90.9521 4.59961C90.7516 4.77279 90.5967 4.94824 90.4873 5.12598V8.87207C90.4873 9.17741 90.5329 9.37337 90.624 9.45996C90.7152 9.54655 90.8861 9.61491 91.1367 9.66504V10H87.7666V9.66504ZM95.5596 4.16895V3.7793C95.6826 3.66536 95.8353 3.53092 96.0176 3.37598C96.2591 3.15267 96.487 2.92253 96.7012 2.68555C97.125 2.2207 97.5101 1.72168 97.8564 1.18848H98.2119V3.55371H99.5449V4.16895H98.2119V8.37988C98.2119 8.57585 98.2415 8.73991 98.3008 8.87207C98.3919 9.07715 98.5423 9.17969 98.752 9.17969C98.9342 9.17969 99.0869 9.11589 99.21 8.98828C99.333 8.85612 99.4561 8.67611 99.5791 8.44824L99.9141 8.6123C99.75 8.99512 99.554 9.30729 99.3262 9.54883C98.9251 9.97266 98.4352 10.1846 97.8564 10.1846C97.5283 10.1846 97.2412 10.123 96.9951 10C96.5212 9.76302 96.2842 9.33236 96.2842 8.70801V4.16895H95.5596ZM100.352 7.88086H100.741C100.878 8.55078 101.133 9.02474 101.507 9.30273C101.881 9.57617 102.263 9.71289 102.655 9.71289C103.015 9.71289 103.28 9.63314 103.448 9.47363C103.617 9.30957 103.701 9.09538 103.701 8.83105C103.701 8.5804 103.61 8.36621 103.428 8.18848C103.327 8.09277 103.166 7.99023 102.942 7.88086L101.903 7.375C101.356 7.10612 100.965 6.81445 100.728 6.5C100.486 6.18555 100.365 5.81413 100.365 5.38574C100.365 4.84342 100.554 4.3763 100.933 3.98438C101.311 3.58789 101.84 3.38965 102.519 3.38965C102.815 3.38965 103.129 3.43978 103.462 3.54004C103.795 3.63574 104.002 3.68359 104.084 3.68359C104.198 3.68359 104.278 3.66081 104.323 3.61523C104.373 3.5651 104.414 3.49674 104.446 3.41016H104.754V5.43359H104.398C104.266 4.95964 104.05 4.5791 103.749 4.29199C103.448 4.00488 103.097 3.86133 102.696 3.86133C102.386 3.86133 102.154 3.94792 101.999 4.12109C101.849 4.29427 101.773 4.48112 101.773 4.68164C101.773 4.8457 101.842 5.00977 101.979 5.17383C102.111 5.34245 102.361 5.51562 102.73 5.69336L103.496 6.0625C103.97 6.29036 104.316 6.51139 104.535 6.72559C104.9 7.09017 105.082 7.53906 105.082 8.07227C105.082 8.5918 104.893 9.07715 104.515 9.52832C104.141 9.97493 103.578 10.1982 102.826 10.1982C102.639 10.1982 102.45 10.1777 102.259 10.1367C102.072 10.1003 101.84 10.0342 101.562 9.93848L101.322 9.85645C101.236 9.82454 101.181 9.80632 101.158 9.80176C101.14 9.7972 101.115 9.79492 101.083 9.79492C101.006 9.79492 100.937 9.82682 100.878 9.89062C100.823 9.94987 100.759 10.0524 100.687 10.1982H100.352V7.88086ZM109.594 6.45215C109.594 5.19889 109.863 4.06641 110.4 3.05469C111.02 1.89258 111.961 0.967448 113.224 0.279297V0.668945C112.472 1.20215 111.977 1.72624 111.74 2.24121C111.371 3.05241 111.187 4.41276 111.187 6.32227C111.187 8.23633 111.373 9.60124 111.747 10.417C111.984 10.9365 112.476 11.4583 113.224 11.9824V12.3721C112.271 11.8844 111.487 11.2122 110.872 10.3555C110.093 9.26628 109.667 7.96517 109.594 6.45215ZM118.248 8.12695C118.672 8.12695 119.107 8.3571 119.554 8.81738C120.005 9.27311 120.376 9.50098 120.668 9.50098C121.169 9.50098 121.527 9.33236 121.741 8.99512C121.96 8.65332 122.069 8.26595 122.069 7.83301C122.069 7.03548 121.734 6.38379 121.064 5.87793C120.682 5.59538 120.076 5.30599 119.246 5.00977V4.78418C119.811 4.58822 120.215 4.39909 120.456 4.2168C120.871 3.90234 121.078 3.47624 121.078 2.93848C121.078 2.47363 120.937 2.12044 120.654 1.87891C120.376 1.63281 120.021 1.50977 119.588 1.50977C119.187 1.50977 118.825 1.6556 118.501 1.94727C118.319 2.11133 118.125 2.35514 117.92 2.67871L117.626 2.51465C117.845 2.0498 118.157 1.63509 118.562 1.27051C119.21 0.687174 119.966 0.395508 120.832 0.395508C121.429 0.395508 121.949 0.564128 122.391 0.901367C122.833 1.23861 123.076 1.67839 123.122 2.2207C123.122 2.60807 123.035 2.95443 122.862 3.25977C122.694 3.56055 122.418 3.80892 122.035 4.00488V4.10742C122.596 4.33073 123.006 4.66797 123.266 5.11914C123.525 5.56576 123.655 6.03743 123.655 6.53418C123.655 7.53678 123.268 8.39128 122.493 9.09766C121.687 9.84049 120.666 10.2119 119.431 10.2119C118.829 10.2119 118.328 10.098 117.927 9.87012C117.526 9.64225 117.325 9.34147 117.325 8.96777C117.325 8.76725 117.396 8.57812 117.537 8.40039C117.683 8.2181 117.92 8.12695 118.248 8.12695ZM131.564 6.45215C131.519 7.43197 131.339 8.29102 131.024 9.0293C130.71 9.76758 130.254 10.4603 129.657 11.1074C129.366 11.4219 129.017 11.7113 128.611 11.9756C128.206 12.2399 127.98 12.3721 127.935 12.3721V11.9824C128.687 11.4538 129.183 10.9229 129.425 10.3896C129.794 9.57845 129.979 8.22266 129.979 6.32227C129.979 4.41732 129.792 3.05697 129.418 2.24121C129.181 1.72624 128.687 1.20215 127.935 0.668945V0.279297C129.165 0.949219 130.09 1.84473 130.71 2.96582C131.28 3.99577 131.564 5.15788 131.564 6.45215Z" fill="#4A4A4A"/>
</svg>